<svg width="63" height="56" viewBox="0 0 63 56" fill="none" xmlns="http://www.w3.org/2000/svg">
<path d="M48.6455 37.3912H48.2539C46.6543 37.3912 45.3602 36.1434 45.3602 34.6036V23.314C45.3602 21.7676 46.6544 20.5198 48.2539 20.5198H48.6455C50.2451 20.5198 51.5392 21.7676 51.5392 23.314V34.6103C51.5392 36.1434 50.2383 37.3912 48.6455 37.3912ZM40.6147 41.5858H37.4554V47.6786C37.4554 49.2184 36.1545 50.4662 34.555 50.4662H34.1634C32.5638 50.4662 31.2697 49.2184 31.2697 47.6786V41.5858H26.398V47.6786C26.398 49.2184 25.0971 50.4662 23.4976 50.4662H23.106C21.5065 50.4662 20.2056 49.2184 20.2056 47.6786V41.5858H17.4447C15.8451 41.5858 14.5509 40.3381 14.5509 38.7982V21.6614C14.5509 21.3628 14.5642 21.0641 14.5841 20.7721H43.4751C43.495 21.0641 43.5083 21.3628 43.5083 21.6614V38.7916C43.5083 40.338 42.2141 41.5858 40.6146 41.5858H40.6147ZM21.8783 9.9736L19.4558 5.92498C19.4027 5.83868 19.4359 5.71924 19.5287 5.65952L19.6416 5.59981C19.7345 5.5467 19.854 5.5799 19.907 5.67276L22.3429 9.74785C24.1282 8.92481 26.126 8.46691 28.2366 8.46691H29.8162C31.8404 8.46691 33.7652 8.89166 35.4908 9.65494L37.8802 5.6727C37.9333 5.58641 38.0527 5.55321 38.1456 5.59975L38.2584 5.65947C38.3514 5.71257 38.3846 5.83201 38.3314 5.92492L35.962 9.87396C39.7916 11.7389 42.5857 15.2832 43.3092 19.5043H14.7368C15.4403 15.3628 18.1614 11.865 21.8782 9.97349L21.8783 9.9736ZM35.544 15.1904C36.3803 15.1904 37.0639 14.6793 37.0639 14.0487C37.0639 13.4182 36.3869 12.9071 35.544 12.9071C34.7144 12.9071 34.0308 13.4182 34.0308 14.0487C34.0308 14.6793 34.7077 15.1904 35.544 15.1904ZM22.1173 15.3165C22.9469 15.3165 23.6305 14.7987 23.6305 14.1683C23.6305 13.5379 22.9535 13.0267 22.1173 13.0267C21.281 13.0267 20.6041 13.5378 20.6041 14.1683C20.6041 14.8055 21.281 15.3165 22.1173 15.3165ZM9.93831 37.3912H9.54669C7.95381 37.3912 6.65295 36.1434 6.65295 34.6036V23.314C6.65295 21.7676 7.95386 20.5198 9.54669 20.5198H9.93831C11.5379 20.5198 12.8387 21.7676 12.8387 23.314V34.6103C12.8387 36.1434 11.5445 37.3912 9.93831 37.3912Z" fill="white"/>
</svg>
