<svg width="18" height="23" viewBox="0 0 18 23" fill="none" xmlns="http://www.w3.org/2000/svg">
<path fill-rule="evenodd" clip-rule="evenodd" d="M0.857117 8.64988C0.857117 12.3701 5.79891 18.9932 8.02079 21.7258C8.54434 22.3771 9.51482 22.3771 10.0384 21.7258C12.222 18.9932 17.2021 12.3701 17.2021 8.64988C17.2021 4.1363 13.5415 0.477417 9.02958 0.477417C4.516 0.477417 0.857117 4.1363 0.857117 8.64988ZM11.7538 8.64995C11.7538 10.1525 10.5322 11.3741 9.02965 11.3741C7.52711 11.3741 6.3055 10.1525 6.3055 8.64995C6.3055 7.14741 7.52711 5.9258 9.02965 5.9258C10.5322 5.9258 11.7538 7.14741 11.7538 8.64995Z" fill="white"/>
</svg>
