<svg width="46" height="46" viewBox="0 0 46 46" fill="none" xmlns="http://www.w3.org/2000/svg">
<path d="M9.08248 5L27.1823 23L9.08425 41C8.76243 40.8655 8.48779 40.6394 8.29487 40.3501C8.10195 40.0608 7.99936 39.7213 8 39.3742V6.62576C8.00014 6.27909 8.10284 5.94011 8.29531 5.65103C8.48779 5.36196 8.76154 5.13555 9.08248 5V5ZM28.439 24.2494L32.5307 28.3173L13.0906 39.5085L28.439 24.2494V24.2494ZM34.1251 18.5981L39.1144 21.4714C39.3838 21.6268 39.6074 21.8497 39.7628 22.118C39.9182 22.3863 40 22.6904 40 23C40 23.3096 39.9182 23.6137 39.7628 23.882C39.6074 24.1503 39.3838 24.3732 39.1144 24.5286L34.1233 27.4019L29.6957 23L34.1251 18.5981ZM13.0906 6.49146L32.5325 17.6809L28.439 21.7506L13.0906 6.49146V6.49146Z" fill="white"/>
</svg>
