<svg width="46" height="46" viewBox="0 0 46 46" fill="none" xmlns="http://www.w3.org/2000/svg">
<path d="M33.7536 22.0817C33.7353 18.9669 35.1499 16.6194 38.0066 14.8884C36.4089 12.6049 33.9917 11.3489 30.8054 11.1069C27.7886 10.8694 24.4878 12.8606 23.2793 12.8606C22.002 12.8606 19.0813 11.1891 16.7831 11.1891C12.0403 11.2621 7 14.9615 7 22.4881C7 24.7123 7.40744 27.0096 8.22232 29.3754C9.31187 32.4902 13.2398 40.1218 17.3371 39.9985C19.4795 39.9483 20.9948 38.4822 23.7828 38.4822C26.4884 38.4822 27.8893 39.9985 30.279 39.9985C34.4129 39.9392 37.9654 33.0017 39 29.8778C33.4561 27.2699 33.7536 22.2415 33.7536 22.0817ZM28.9422 8.15192C31.2632 5.40251 31.0526 2.89972 30.984 2C28.933 2.11875 26.5617 3.39297 25.2112 4.9595C23.7233 6.6402 22.8489 8.71825 23.0366 11.0612C25.2524 11.2302 27.2758 10.093 28.9422 8.15192Z" fill="white"/>
</svg>
