<svg width="70" height="70" viewBox="0 0 70 70" fill="none" xmlns="http://www.w3.org/2000/svg">
<path d="M33.5 50C33.5 50.8284 34.1716 51.5 35 51.5C35.8284 51.5 36.5 50.8284 36.5 50L33.5 50ZM36.0607 27.9393C35.4749 27.3536 34.5251 27.3536 33.9393 27.9393L24.3934 37.4853C23.8076 38.0711 23.8076 39.0208 24.3934 39.6066C24.9792 40.1924 25.9289 40.1924 26.5147 39.6066L35 31.1213L43.4853 39.6066C44.0711 40.1924 45.0208 40.1924 45.6066 39.6066C46.1924 39.0208 46.1924 38.0711 45.6066 37.4853L36.0607 27.9393ZM36.5 50L36.5 29L33.5 29L33.5 50L36.5 50Z" fill="#6C6C6C"/>
<line x1="21" y1="23" x2="49" y2="23" stroke="#6C6C6C" stroke-width="2" stroke-linecap="round"/>
</svg>
