<svg width="57" height="56" viewBox="0 0 57 56" fill="none" xmlns="http://www.w3.org/2000/svg">
<path d="M42.8743 35.2656C44.1348 37.055 45.5798 38.2119 47.2092 38.7364C46.5021 40.9269 45.3799 43.2099 43.8427 45.5855C41.4754 49.1643 39.1388 50.9537 36.833 50.9537C35.9722 50.9537 34.6963 50.6606 33.0053 50.0744C31.4374 49.4883 30.0693 49.1952 28.901 49.1952C27.7327 49.1952 26.4414 49.5037 25.0272 50.1207C23.5515 50.7069 22.3371 51 21.384 51C18.617 51 15.8961 48.6398 13.2214 43.9195C10.5466 39.2609 9.20923 34.6794 9.20923 30.1751C9.20923 26.0101 10.2238 22.6009 12.2529 19.9477C14.3435 17.2944 16.9261 15.9678 20.0005 15.9678C20.6769 15.9678 21.4301 16.0526 22.2602 16.2223C23.0903 16.392 23.9511 16.7082 24.8427 17.171C25.7958 17.6955 26.5798 18.058 27.1947 18.2585C27.8096 18.4591 28.2861 18.5594 28.6243 18.5594C29.024 18.5594 29.6388 18.4668 30.4689 18.2817C31.299 18.0966 32.1291 17.7572 32.9592 17.2636C33.8508 16.77 34.6194 16.3997 35.2651 16.1529C35.9107 15.9061 36.5717 15.7827 37.2481 15.7827C39.4002 15.7827 41.3371 16.3689 43.0587 17.5412C43.9811 18.1583 44.9188 19.0684 45.8718 20.2716C44.4576 21.5057 43.4277 22.5855 42.782 23.5111C41.583 25.2388 40.9835 27.1207 40.9835 29.1569C40.9835 31.4091 41.6138 33.4453 42.8743 35.2656ZM33.6049 13.6539C32.5288 14.672 31.545 15.3353 30.6534 15.6439C30.346 15.7364 29.954 15.8213 29.4774 15.8984C29.0009 15.9755 28.4552 16.0449 27.8403 16.1066C27.871 13.3917 28.5782 11.0469 29.9617 9.07243C31.3451 7.09792 33.6202 5.74044 36.7869 5C36.8484 5.30852 36.8945 5.52448 36.9252 5.64789V6.15694C36.9252 7.26761 36.6639 8.5171 36.1413 9.90543C35.5879 11.2629 34.7424 12.5124 33.6049 13.6539Z" fill="white"/>
</svg>
