<svg width="33" height="30" viewBox="0 0 33 30" fill="none" xmlns="http://www.w3.org/2000/svg">
<path fill-rule="evenodd" clip-rule="evenodd" d="M2.22378 0.0645616C2.59924 -0.0331158 3.00201 -0.0209847 3.37803 0.107957C3.72351 0.226426 4.05121 0.441273 4.31028 0.77569C5.27003 2.01451 6.44064 2.76972 7.68469 3.42909C10.4279 1.59526 13.5895 0.647705 16.7361 0.635228C19.8135 0.623025 22.877 1.50314 25.5317 3.32288L25.5263 3.31925L25.5447 3.30948C26.6417 2.71409 27.655 2.02415 28.5213 0.999861L28.5996 0.905816L28.6731 0.814994C28.9886 0.416233 29.3105 0.228523 29.6389 0.118774C30.0134 -0.00610497 30.4139 -0.016045 30.7872 0.082984C31.1593 0.181725 31.5018 0.387975 31.7648 0.681426C32.0078 0.952681 32.1879 1.29863 32.251 1.71428C32.7368 4.92354 32.6181 7.80233 31.0019 10.4763L31.0081 10.5109C32.394 14.9235 31.6551 19.334 29.4325 22.8025L29.3636 22.909C27.0258 26.4875 23.0888 29.0516 18.2447 29.4985C14.5982 29.835 11.1015 28.922 8.26446 27.0963C5.39834 25.2519 3.20443 22.4777 2.18865 19.1109C1.35385 16.3441 1.37698 13.5737 2.24125 10.8234C0.430754 8.1456 0.252342 5.21063 0.719691 1.91251L0.735045 1.80562L0.750112 1.70334C0.812491 1.28474 0.993509 0.937086 1.23739 0.664996C1.50251 0.369217 1.84818 0.162279 2.22378 0.0645616Z" fill="url(#paint0_linear_290_715)"/>
<path fill-rule="evenodd" clip-rule="evenodd" d="M2.49228 1.09716C2.66777 1.0515 2.85606 1.05696 3.03185 1.11724C3.19313 1.17254 3.34588 1.27311 3.46679 1.42918C4.56625 2.84835 5.9069 3.70533 7.33986 4.45422C7.47914 4.55941 7.61835 4.60431 7.75569 4.59928C7.81912 4.59695 7.88217 4.58397 7.94456 4.55933C7.96807 4.5471 7.99399 4.53169 8.02299 4.5121C8.08584 4.46963 8.125 4.43325 8.15256 4.40051C10.7461 2.63069 13.75 1.71404 16.7403 1.70219C19.684 1.69051 22.6147 2.5548 25.132 4.34515L25.4436 4.56809L25.76 4.40363C27.1503 3.67731 28.4341 2.82603 29.5075 1.47979L29.5398 1.43904C29.6616 1.28422 29.8149 1.18488 29.9763 1.13094C30.1515 1.07252 30.3389 1.06795 30.5135 1.11428C30.6872 1.16038 30.8473 1.25644 30.9701 1.39348C31.0832 1.51975 31.1667 1.68091 31.1961 1.87403C31.6537 4.89784 31.5701 7.61634 29.9584 10.1341C29.9146 10.2025 29.8702 10.2699 29.8254 10.3367C29.8523 10.4132 29.8788 10.49 29.9046 10.5673C31.3171 14.787 30.6258 19.0262 28.4703 22.3256C26.2999 25.6479 22.6416 28.0215 18.1466 28.4363C14.7474 28.7499 11.4868 27.9015 8.84168 26.1993C6.1866 24.4907 4.15116 21.9226 3.20993 18.8028C2.42196 16.1913 2.46167 13.5763 3.31091 10.9813C3.31435 10.9708 3.31777 10.9603 3.32118 10.9499C3.32339 10.9432 3.32586 10.9365 3.32847 10.9297L3.40225 10.7388L3.27479 10.4379C1.45297 7.91575 1.33242 5.10882 1.79052 1.96041L1.80531 1.86005C1.83442 1.66551 1.91829 1.50373 2.03172 1.37719C2.15549 1.2391 2.31699 1.14276 2.49228 1.09716Z" fill="#FBF8FF"/>
<defs>
<linearGradient id="paint0_linear_290_715" x1="1.258" y1="20.0224" x2="18.785" y2="35.5044" gradientUnits="userSpaceOnUse">
<stop offset="0.000245848" stop-color="white"/>
<stop offset="1" stop-color="#DCD0FF"/>
</linearGradient>
</defs>
</svg>
