<svg width="32" height="32" viewBox="0 0 32 32" fill="none" xmlns="http://www.w3.org/2000/svg">
<path d="M8.7808 7.49445C8.08235 9.07038 8.35824 11.8939 8.46999 13.8685C7.71566 14.2895 6.74714 13.5508 6.19886 13.5508C5.62845 13.5508 4.94746 13.9283 4.84037 14.4912C4.76354 14.8969 4.94397 15.4878 6.23844 16.0026C6.73899 16.2019 7.92985 16.4364 8.20574 17.0907C8.59338 18.01 6.21515 22.2535 2.48076 22.8727C2.33977 22.8961 2.21236 22.9712 2.12298 23.0836C2.0336 23.1959 1.98856 23.3375 1.9965 23.4812C2.06169 24.6245 4.60638 25.0724 5.73439 25.2483C5.84963 25.4054 5.94276 26.0691 6.0906 26.5744C6.15695 26.8008 6.32807 27.0716 6.76809 27.0716C7.34199 27.0716 8.29538 26.626 9.95537 26.9028C11.5828 27.176 13.1124 29.5 16.0494 29.5C18.7791 29.5 20.4077 27.1654 21.9746 26.9028C22.8814 26.7515 23.6602 26.7996 24.5309 26.9708C25.1304 27.0892 25.6682 27.1549 25.8393 26.5616C25.9895 26.0491 26.0815 25.3984 26.1944 25.2448C27.3119 25.07 29.8682 24.6233 29.9323 23.48C29.9402 23.3363 29.8952 23.1947 29.8058 23.0824C29.7164 22.9701 29.589 22.895 29.448 22.8715C25.7765 22.2617 23.3261 18.0311 23.723 17.0896C23.9977 16.4364 25.1805 16.2043 25.6903 16.0014C26.6379 15.625 27.1128 15.1619 27.1024 14.626C27.0896 13.94 26.27 13.5308 25.667 13.5308C25.0536 13.5308 24.1724 14.2625 23.4588 13.8662C23.5705 11.8752 23.8453 9.06451 23.148 7.48976C21.8267 4.50792 18.8874 3 15.9493 3C13.0297 3 10.1125 4.48681 8.7808 7.49445Z" fill="white"/>
</svg>
