<svg width="38" height="32" viewBox="0 0 38 32" fill="none" xmlns="http://www.w3.org/2000/svg">
<path d="M7.61105 8.78267C7.61105 8.78267 5.10378 10.8867 4.96669 13.1121V13.526C5.07738 15.3241 6.62196 16.3828 6.62196 16.3828C9.09775 18.5101 15.0953 21.1858 16.5018 21.7906C16.5018 21.7906 16.5861 21.828 16.6389 21.7817L16.6653 21.7353V21.6844C12.8206 14.326 7.61004 8.78357 7.61004 8.78357L7.61105 8.78267ZM15.7036 23.6012C15.6772 23.504 15.5716 23.504 15.5716 23.504L5.58005 23.8153C6.65953 25.5153 8.48946 26.8211 10.3986 26.4304C11.6995 26.1334 14.6779 24.3121 15.6508 23.694C15.7351 23.6333 15.7036 23.5869 15.7036 23.5869V23.6012ZM15.8143 22.6718C11.4243 20.0656 2.92452 16.0849 2.92452 16.0849C2.743 16.5837 2.64684 17.1034 2.63916 17.627V17.7109C2.63916 18.9837 3.17839 19.8756 3.17839 19.8756C4.26295 21.8869 6.34676 22.4961 6.34676 22.4961C7.2993 22.8493 8.24574 22.8627 8.24574 22.8627C8.40924 22.8859 14.2017 22.8627 15.7452 22.8627C15.8143 22.8627 15.8559 22.802 15.8559 22.802V22.7325C15.8559 22.695 15.8133 22.6718 15.8133 22.6718H15.8143ZM14.9044 5.27471C13.945 5.4905 13.0896 5.97044 12.4633 6.64424C11.837 7.31804 11.4729 8.15028 11.4243 9.01904V9.50692C11.4479 9.92888 11.5207 10.3476 11.6416 10.7565C12.5352 14.2038 16.8724 19.8524 17.8036 21.0414C17.8727 21.102 17.9407 21.0788 17.9407 21.0788C17.9667 21.0686 17.9883 21.0515 18.0025 21.0299C18.0168 21.0083 18.0228 20.9832 18.0199 20.9584C19.4589 8.35544 16.518 5.00089 16.518 5.00089C16.0844 5.02408 14.9044 5.27471 14.9044 5.27471ZM26.144 7.97369C26.144 7.97369 25.4829 5.83217 22.8436 5.26044C22.8436 5.26044 22.0718 5.09276 21.2563 5C21.2563 5 18.3053 8.34028 19.7382 20.9709C19.7544 21.0547 19.8225 21.0637 19.8225 21.0637C19.9179 21.1011 19.9545 21.0315 19.9545 21.0315C20.9334 19.8051 25.2381 14.1797 26.1165 10.7556C26.1165 10.7556 26.603 9.08771 26.1429 7.9728L26.144 7.97369ZM22.1926 23.5174C22.1926 23.5174 22.0972 23.5174 22.0708 23.5735C22.0708 23.5735 22.0545 23.6574 22.1073 23.694C23.0538 24.3022 25.9683 26.0727 27.3646 26.4304C27.3646 26.4304 27.5819 26.491 27.9465 26.5H28.1313C29.0676 26.4768 30.7066 26.0629 32.1933 23.8153L22.1754 23.5182L22.1926 23.5174ZM32.7924 13.5161C32.9834 11.0633 30.1633 8.79159 30.1633 8.78267C30.1633 8.78267 24.9538 14.3251 21.1345 21.6274C21.1345 21.6274 21.0918 21.7201 21.1609 21.7808L21.2137 21.7897H21.298C22.7309 21.1627 28.6868 18.4958 31.1514 16.3917C31.1514 16.3917 32.7112 15.2857 32.7914 13.5161H32.7924ZM34.8498 16.0617C34.8498 16.0617 26.3501 20.0665 21.9601 22.6584C21.9601 22.6584 21.891 22.7093 21.9174 22.7931C21.9174 22.7931 21.9601 22.8627 22.0129 22.8627C23.5839 22.8627 29.5449 22.8627 29.6931 22.8395C29.6931 22.8395 30.4649 22.8163 31.4124 22.4961C31.4124 22.4961 33.5226 21.9012 34.6224 19.7927C34.6224 19.7927 35.6115 18.0694 34.8498 16.0626V16.0617Z" fill="white"/>
</svg>
